#!OML:ASF Y:\EmotionMaleHayes\Project 1\Capture day 1\Session 1\Male1.ASF
:FULLY-SPECIFIED
:DEGREES
16
root -27.2942 17.1432 -0.527078 132.982 75.3928 128.489
lowerback 13.9919 -4.40696 -16.2297
upperback 0.644871 -8.32908 -1.3327
thorax -5.03762 -3.65534 8.96537
lowerneck -33.0856 2.66028 1.02041
upperneck 17.1933 2.77326 1.57213
head 10.8522 1.55823 0.927053
rclavicle -3.83654e-014 1.64991e-014
rhumerus -94.9645 11.8947 -93.5429
rradius 95.7058
rwrist -22.1085
rhand -30.8583 -23.1301
rfingers 7.12502
rthumb -4.14626 -53.0695
lclavicle -3.83654e-014 1.64991e-014
lhumerus -19.7786 -29.2487 90.3778
lradius 110.299
lwrist 14.6548
lhand -42.2747 -50.7066
lfingers 7.12502
lthumb -15.1598 -21.2819
rfemur -43.1925 -12.8852 8.39383
rtibia 82.2753
rfoot 3.28514 31.6292
rtoes 10.7759
lfemur 21.6697 -1.4063 -31.0494
ltibia 12.2702
lfoot 8.60732 -0.182507
ltoes 0.436019
17
root -26.809 17.2746 -0.52028 131.562 75.6251 127.044
lowerback 13.3352 -4.37694 -16.5426
upperback 0.860756 -8.17684 -1.24941
thorax -4.41672 -3.6458 9.10928
lowerneck -33.6231 2.84356 1.28699
upperneck 17.4691 2.93009 1.39986
head 11.0483 1.62389 0.861475
rclavicle -6.49032e-014 1.90833e-014
rhumerus -95.4076 11.4968 -93.1824
rradius 96.232
rwrist -22.3386
rhand -32.8511 -21.4478
rfingers 7.12502
rthumb -6.07049 -51.3409
lclavicle -6.49032e-014 1.90833e-014
lhumerus -20.0833 -29.9186 90.1184
lradius 111.282
lwrist 15.6631
lhand -41.9003 -50.9577
lfingers 7.12502
lthumb -14.7991 -21.5061
rfemur -42.5413 -11.8078 8.51978
rtibia 75.1222
rfoot -5.32734 -2.47487
rtoes 11.7924
lfemur 23.1332 -0.747567 -30.1561
ltibia 11.2004
lfoot 13.4385 2.08873
ltoes 7.29269
18
root -26.3246 17.3979 -0.511051 130.669 75.7402 126.204
lowerback 12.8036 -4.39831 -16.7134
upperback 1.07146 -8.09603 -1.26306
thorax -3.88785 -3.66414 9.09623
lowerneck -34.1211 3.04067 1.64685
upperneck 17.8477 3.04343 1.28645
head 11.2801 1.68453 0.796479
rclavicle 2.64881e-014 -1.66979e-014
rhumerus -95.7559 11.1036 -93.009
rradius 96.7261
rwrist -22.6451
rhand -33.2468 -22.3792
rfingers 7.12502
rthumb -6.45249 -52.2609
lclavicle 2.64881e-014 -1.66979e-014
lhumerus -20.7469 -30.8138 89.8936
lradius 111.739
lwrist 15.6179
lhand -42.1133 -51.3689
lfingers 7.12502
lthumb -15.0043 -21.9325
rfemur -41.5351 -10.8995 8.60791
rtibia 69.31
rfoot -5.6397 -3.77696
rtoes 14.6165
lfemur 24.6038 -0.240625 -29.2006
ltibia 10.4796
lfoot 16.7995 1.49598
ltoes 2.25881
19
root -25.8473 17.5065 -0.501996 129.679 75.9499 125.137
lowerback 12.8413 -4.30437 -16.9522
upperback 0.783579 -8.05133 -1.08463
thorax -4.18169 -3.59901 9.44262
lowerneck -34.3964 3.22895 1.94187
upperneck 18.5811 3.23552 0.939531
head 11.619 1.73936 0.669368
rclavicle 4.12727e-014 1.04263e-013
rhumerus -96.4469 10.9673 -92.5467
rradius 97.2527
rwrist -23.6732
rhand -32.4421 -23.4228
rfingers 7.12502
rthumb -5.67561 -53.3268
lclavicle 4.12727e-014 1.04263e-013
lhumerus -22.3706 -31.5953 90.4745
lradius 112.38
lwrist 15.5997
lhand -42.5886 -50.9733
lfingers 7.12502
lthumb -15.4621 -21.5717
rfemur -40.6066 -10.0187 8.75343
rtibia 63.4546
rfoot -6.06742 -4.65405
rtoes 15.9836
lfemur 25.7553 0.00207278 -28.4512
ltibia 10.4043
lfoot 18.4317 0.56763
ltoes -2.85823
20
root -25.374 17.6027 -0.49763 129.252 76.302 124.662
lowerback 12.5665 -4.30251 -16.9605
upperback 0.737892 -8.00015 -0.881883
thorax -4.06219 -3.58806 9.63407
lowerneck -34.5301 3.43491 2.22718
upperneck 18.9421 3.45472 0.636496
head 11.7935 1.8129 0.55791
rclavicle -2.25869e-014 -3.84648e-014
rhumerus -96.7149 10.9285 -92.2221
rradius 97.8188
rwrist -24.3536
rhand -32.0101 -23.4
rfingers 7.12502
rthumb -5.25851 -53.3147
lclavicle -2.25869e-014 -3.84648e-014
lhumerus -23.6713 -32.1505 90.7781
lradius 112.865
lwrist 15.737
lhand -42.3273 -51.2909
lfingers 7.12502
lthumb -15.2105 -21.87
rfemur -39.5064 -9.20921 9.10054
rtibia 57.4172
rfoot -6.43189 -5.35403
rtoes 14.6802
lfemur 26.5614 -0.367829 -28.0219
ltibia 11.245
lfoot 18.2268 0.452305
ltoes -3.88778
21
root -24.9015 17.687 -0.503696 129.407 76.614 124.932
lowerback 12.7385 -4.29815 -16.8478
upperback 0.533187 -8.03601 -0.58432
thorax -4.34598 -3.57516 9.93978
lowerneck -34.2793 3.60978 2.39217
upperneck 19.1433 3.68964 0.386544
head 11.8415 1.89277 0.480538
rclavicle 3.93345e-014 1.12562e-014
rhumerus -97.2271 10.9959 -91.7421
rradius 98.516
rwrist -24.4189
rhand -31.2725 -23.3467
rfingers 7.12502
rthumb -4.54632 -53.278
lclavicle 3.93345e-014 1.12562e-014
lhumerus -25.5179 -32.4657 91.6586
lradius 113.433
lwrist 15.6015
lhand -41.8436 -51.7301
lfingers 7.12502
lthumb -14.7445 -22.2745
rfemur -37.9311 -8.61132 9.42742
rtibia 51.1076
rfoot -6.49702 -5.68442
rtoes 11.4536
lfemur 27.1732 -1.02362 -27.8352
ltibia 13.051
lfoot 16.9522 1.11599
ltoes -2.4125
22
root -24.4373 17.7369 -0.526755 127.812 76.9865 122.936
lowerback 11.5906 -4.39455 -16.5252
upperback 0.704778 -7.88297 -0.637203
thorax -3.60887 -3.59019 9.54018
lowerneck -34.1993 3.84457 2.7403
upperneck 18.8334 3.87517 0.281418
head 11.7187 1.98872 0.416465
rclavicle -2.76435e-015 2.28851e-014
rhumerus -96.7761 10.9513 -91.4989
rradius 99.1126
rwrist -24.1839
rhand -30.5909 -23.9034
rfingers 7.12502
rthumb -3.88809 -53.8477
lclavicle -2.76435e-015 2.28851e-014
lhumerus -26.3998 -32.9725 91.5694
lradius 114.001
lwrist 15.9032
lhand -41.2302 -50.7297
lfingers 7.12502
lthumb -14.1535 -21.2318
rfemur -37.0156 -7.99271 9.46885
rtibia 45.0514
rfoot -6.33613 -5.25797
rtoes 11.0968
lfemur 27.1224 -1.29345 -28.1512
ltibia 15.479
lfoot 15.1786 2.29714
ltoes -1.03191
23
root -23.9707 17.779 -0.544824 127.146 77.2637 122.076
lowerback 10.9215 -4.41645 -16.3264
upperback 0.804639 -7.74918 -0.487941
thorax -3.16686 -3.5789 9.49765
lowerneck -34.5571 4.12339 3.16529
upperneck 19.0702 4.20069 -0.315843
head 11.8979 2.07621 0.193272
rclavicle 2.27391e-014 2.87492e-014
rhumerus -96.3987 10.8825 -91.1023
rradius 99.8533
rwrist -24.2902
rhand -30.7471 -24.4793
rfingers 7.12502
rthumb -4.03897 -54.4208
lclavicle 2.27391e-014 2.87492e-014
lhumerus -27.4663 -33.5321 91.9927
lradius 114.195
lwrist 15.9336
lhand -41.1309 -49.8508
lfingers 7.12502
lthumb -14.0578 -20.3462
rfemur -35.4638 -7.38199 9.48935
rtibia 38.6836
rfoot -5.96826 -4.96903
rtoes 14.3634
lfemur 27.1075 -1.52755 -28.1449
ltibia 18.2641
lfoot 13.8193 3.52281
ltoes 0.154528
24
root -23.5118 17.8037 -0.562191 126.009 77.729 120.945
lowerback 11.5762 -4.20318 -15.6897
upperback 0.191276 -7.59259 -0.485655
thorax -4.33193 -3.37836 9.27047
lowerneck -34.01 4.06547 3.2957
upperneck 19.4916 4.0981 -0.369407
head 11.9771 2.03377 0.128774
rclavicle 7.811e-014 2.75317e-014
rhumerus -97.0798 10.4481 -91.0304
rradius 100.576
rwrist -24.1588
rhand -31.1197 -24.9875
rfingers 7.12502
rthumb -4.39872 -54.9218
lclavicle 7.811e-014 2.75317e-014
lhumerus -30.0477 -33.9458 93.1465
lradius 114.58
lwrist 16.8949
lhand -40.4608 -50.3522
lfingers 7.12502
lthumb -13.4119 -20.8039
rfemur -33.7519 -6.39345 9.68616
rtibia 32.442
rfoot -5.19945 -5.18706
rtoes 16.3675
lfemur 27.1937 -1.49944 -27.9061
ltibia 21.1328
lfoot 13.0851 4.80157
ltoes 1.67725
